<?xml version="1.0" encoding="UTF-8"?>
<svg id="Warstwa_2" data-name="Warstwa 2" xmlns="http://www.w3.org/2000/svg" viewBox="0 0 407.8 82.91">
  <defs>
    <style>
      .cls-1 {
        letter-spacing: .02em;
      }

      .cls-1, .cls-2, .cls-3, .cls-4, .cls-5, .cls-6, .cls-7, .cls-8, .cls-9 {
        fill: #2e90fa;
        font-family: Manrope-SemiBold, Manrope;
        font-variation-settings: 'wght' 600;
        font-weight: 600;
      }

      .cls-10 {
        font-size: 60px;
      }

      .cls-11 {
        fill: #fff;
        fill-rule: evenodd;
      }

      .cls-2 {
        letter-spacing: .02em;
      }

      .cls-3 {
        letter-spacing: .03em;
      }

      .cls-4 {
        letter-spacing: .01em;
      }

      .cls-12 {
        font-family: MyriadConceptRoman-LightSemiExt, 'Myriad Variable Concept';
        font-variation-settings: 'wght' 300, 'wdth' 110;
        font-weight: 300;
        letter-spacing: 0em;
      }

      .cls-5 {
        letter-spacing: -.02em;
      }

      .cls-6 {
        letter-spacing: .04em;
      }

      .cls-7 {
        letter-spacing: .01em;
      }

      .cls-8 {
        letter-spacing: .02em;
      }

      .cls-9 {
        letter-spacing: .04em;
      }
    </style>
  </defs>
  <g id="Warstwa_1-2" data-name="Warstwa 1">
    <g>
      <g>
        <path class="cls-11" d="M43.19,59.66c-1.76-2.77-4.46-4.93-7.55-6.07-1.85-.72-3.86-.88-5.83-.93-3.34-.06-6.66-.96-9.62-2.48-14.09-6.85-16.22-27.57-3.84-37.17.77-.58,1.53-1.28,2.4-1.68.58,1.14,0,28.36.21,29.79,1.88,2,4.41,3.49,7.05,4.28.31.09.7.22,1.01.25.14-6.11,0-43.68.04-45.57C-.38,3.08-9.78,38.21,12.18,54.81c3.89,2.93,8.53,4.87,13.33,5.65,1.68.29,3.4.4,5.1.36,4.46-.03,7.91,4.77,6.47,8.99-1.87,6.42-11.39,6.44-13.27,0-.78-2.49.28-3.17-.91-3.39-2.19-.47-4.32-1.11-6.39-1.95-.21-.08-.52-.24-.7-.06-1.72,6.13,1.48,13.14,6.93,16.32,13.44,8.02,28.9-7.89,20.44-21.09Z"/>
        <path class="cls-11" d="M57.32,15.68C52.67,7.13,43.76.91,34.04,0c-.47-.35-.05,12.66-.18,12.67-.03,12.45.15,28.01.05,33.02,5.64.96,10.94,4.1,14.39,8.71.26.44.61.5.99.09,11.67-8.89,15.13-26.03,8.03-38.82ZM51.01,39.25c-.5,1.14-1.09,2.2-1.7,3.22-.4.55-.46,1.17-1.22.52-1.84-1.34-3.88-2.41-5.95-3.35-.31-.84-.22-22.48-.05-28.41.12,0,.3.07.41.16,9.14,5.68,12.84,18.04,8.5,27.86Z"/>
      </g>
      <text class="cls-10" transform="translate(80.38 62.91)"><tspan class="cls-7" x="0" y="0">D</tspan><tspan class="cls-3" x="42.16" y="0">a</tspan><tspan class="cls-9" x="77.9" y="0">r</tspan><tspan class="cls-5" x="103.49" y="0"> </tspan><tspan class="cls-6" x="114.29" y="0">S</tspan><tspan class="cls-4" x="155.09" y="0">t</tspan><tspan class="cls-1" x="181.19" y="0">u</tspan><tspan class="cls-8" x="219.51" y="0">d</tspan><tspan class="cls-2" x="256.99" y="0">i</tspan><tspan class="cls-9" x="274.05" y="0">o</tspan><tspan class="cls-12" x="313.02" y="0"> </tspan></text>
    </g>
  </g>
</svg>
