<?xml version="1.0" encoding="UTF-8"?>
<svg id="Warstwa_2" data-name="Warstwa 2" xmlns="http://www.w3.org/2000/svg" viewBox="0 0 427.46 97.16">
  <defs>
    <style>
      .cls-1 {
        font-size: 60px;
      }

      .cls-2 {
        letter-spacing: .02em;
      }

      .cls-2, .cls-3, .cls-4, .cls-5, .cls-6, .cls-7, .cls-8, .cls-9, .cls-10, .cls-11 {
        fill: #eaf4ff;
      }

      .cls-2, .cls-3, .cls-4, .cls-5, .cls-6, .cls-8, .cls-9, .cls-10, .cls-11 {
        font-family: Manrope-SemiBold, Manrope;
        font-variation-settings: 'wght' 600;
        font-weight: 600;
      }

      .cls-3 {
        letter-spacing: .03em;
      }

      .cls-4 {
        letter-spacing: .05em;
      }

      .cls-12 {
        font-family: MyriadConceptRoman-LightSemiExt, 'Myriad Variable Concept';
        font-variation-settings: 'wght' 300, 'wdth' 110;
        font-weight: 300;
        letter-spacing: 0em;
      }

      .cls-5 {
        letter-spacing: .02em;
      }

      .cls-6 {
        letter-spacing: .04em;
      }

      .cls-7 {
        fill-rule: evenodd;
      }

      .cls-8 {
        letter-spacing: .05em;
      }

      .cls-9 {
        letter-spacing: .03em;
      }

      .cls-10 {
        letter-spacing: -.02em;
      }

      .cls-11 {
        letter-spacing: .03em;
      }
    </style>
  </defs>
  <g id="Warstwa_1-2" data-name="Warstwa 1">
    <g>
      <g>
        <path class="cls-7" d="M50.61,69.91c-2.06-3.25-5.23-5.78-8.84-7.11-2.17-.84-4.53-1.03-6.83-1.09-3.91-.07-7.8-1.12-11.27-2.9C7.16,50.78,4.67,26.5,19.17,15.26c.9-.68,1.79-1.5,2.81-1.97.68,1.34-.01,33.23.24,34.91,2.21,2.35,5.16,4.09,8.26,5.01.37.1.82.25,1.18.29.16-7.16,0-51.18.05-53.4C-.45,3.61-11.46,44.78,14.27,64.23c4.56,3.43,9.99,5.7,15.62,6.62,1.96.34,3.99.47,5.98.43,5.23-.03,9.26,5.59,7.58,10.53-2.19,7.53-13.34,7.55-15.55,0-.92-2.91.32-3.71-1.06-3.97-2.56-.55-5.06-1.3-7.49-2.28-.24-.1-.61-.28-.82-.07-2.02,7.19,1.74,15.39,8.12,19.12,15.75,9.4,33.87-9.25,23.96-24.71Z"/>
        <path class="cls-7" d="M67.17,18.37C61.73,8.35,51.28,1.07,39.89,0c-.55-.41-.06,14.84-.21,14.84-.03,14.59.18,32.82.06,38.69,6.61,1.13,12.83,4.8,16.86,10.21.31.52.71.59,1.16.11,13.68-10.42,17.73-30.5,9.41-45.49ZM59.78,46c-.58,1.33-1.27,2.58-1.99,3.78-.47.64-.54,1.37-1.43.61-2.16-1.57-4.55-2.82-6.97-3.92-.37-.98-.25-26.34-.05-33.29.14,0,.35.09.48.18,10.7,6.66,15.05,21.14,9.96,32.64Z"/>
      </g>
      <text class="cls-1" transform="translate(94.65 70.04)"><tspan class="cls-5" x="0" y="0">D</tspan><tspan class="cls-6" x="42.76" y="0">a</tspan><tspan class="cls-4" x="79.1" y="0">r</tspan><tspan class="cls-10" x="105.29" y="0"> </tspan><tspan class="cls-8" x="116.09" y="0">S</tspan><tspan class="cls-2" x="157.49" y="0">t</tspan><tspan class="cls-9" x="184.19" y="0">u</tspan><tspan class="cls-11" x="223.11" y="0">d</tspan><tspan class="cls-3" x="261.19" y="0">i</tspan><tspan class="cls-4" x="278.85" y="0">o</tspan><tspan class="cls-12" x="318.42" y="0"> </tspan></text>
    </g>
  </g>
</svg>